<svg xmlns="http://www.w3.org/2000/svg" viewBox="-1.5765 4.6750 101.1796 105.0500"><path d="M6 109 C22 95 6 79 11 63 C18 44 6 25 17 5 M8 105 C38 88 50 118 76 102 M10 69 Q1 54 4 41" fill="none" stroke="black" stroke-width="1.4"/><path transform="translate(12.00 21.00) rotate(-55) scale(0.75)" d="M0 0 C-10 -3 -11 -10 -10 -15 C-2 -13 3 -7 0 0Z"/><path transform="translate(10.00 37.00) rotate(35) scale(0.65)" d="M0 0 C-10 -3 -11 -10 -10 -15 C-2 -13 3 -7 0 0Z"/><path transform="translate(12.00 55.00) rotate(-50) scale(0.75)" d="M0 0 C-10 -3 -11 -10 -10 -15 C-2 -13 3 -7 0 0Z"/><path transform="translate(10.00 79.00) rotate(25) scale(0.8)" d="M0 0 C-10 -3 -11 -10 -10 -15 C-2 -13 3 -7 0 0Z"/><path transform="translate(16.00 97.00) rotate(-75) scale(0.7)" d="M0 0 C-10 -3 -11 -10 -10 -15 C-2 -13 3 -7 0 0Z"/><path transform="translate(39.00 101.00) rotate(90) scale(0.6)" d="M0 0 C-10 -3 -11 -10 -10 -15 C-2 -13 3 -7 0 0Z"/><path transform="translate(60.00 107.00) rotate(60) scale(0.6)" d="M0 0 C-10 -3 -11 -10 -10 -15 C-2 -13 3 -7 0 0Z"/><path d="M76 102q8 -11 13 -4q-3 8 -13 4"/><g transform="translate(11.7718 92.7282) scale(0.135922 -0.135922)"><path d="M90 1C116 1 117 1 148 0H182C188 0 201 0 217 -1C284 -2 284 -2 302 -2C371 -2 422 11 490 44C580 90 624 147 624 220C624 251 609 280 584 299C563 315 541 321 493 327C593 371 642 426 642 490C642 557 589 585 464 585H449L457 616L376 581C290 568 241 553 196 526C116 477 75 407 75 319C75 298 77 284 82 254L162 291C153 338 152 345 152 365C152 433 173 475 224 508C263 534 304 546 367 550L293 254C251 81 234 59 137 49ZM376 292C395 294 404 294 414 294C493 294 537 259 537 197C537 159 521 115 496 87C469 56 429 40 379 40C352 40 330 42 231 53C329 140 345 164 366 254ZM442 557C490 556 502 554 516 547C540 536 555 507 555 474C555 427 532 379 498 353C467 330 437 321 383 320Z" stroke="black" stroke-width="5"/></g></svg>